<?xml version="1.0" encoding="UTF-8" standalone="no"?>
<svg
   version="1.1"
   viewBox="0.00 0.00 200.00 200.00"
   id="svg43"
   sodipodi:docname="logo.svg"
   inkscape:version="1.3 (0e150ed6c4, 2023-07-21)"
   inkscape:export-filename="logo.png"
   inkscape:export-xdpi="96"
   inkscape:export-ydpi="96"
   xmlns:inkscape="http://www.inkscape.org/namespaces/inkscape"
   xmlns:sodipodi="http://sodipodi.sourceforge.net/DTD/sodipodi-0.dtd"
   xmlns="http://www.w3.org/2000/svg"
   xmlns:svg="http://www.w3.org/2000/svg">
  <defs
     id="defs43" />
  <sodipodi:namedview
     id="namedview43"
     pagecolor="#505050"
     bordercolor="#eeeeee"
     borderopacity="1"
     inkscape:showpageshadow="0"
     inkscape:pageopacity="0"
     inkscape:pagecheckerboard="0"
     inkscape:deskcolor="#505050"
     inkscape:zoom="2.9325"
     inkscape:cx="128.38875"
     inkscape:cy="91.901108"
     inkscape:window-width="2560"
     inkscape:window-height="1369"
     inkscape:window-x="-8"
     inkscape:window-y="-8"
     inkscape:window-maximized="1"
     inkscape:current-layer="svg43" />
  <path
     fill="#e78200"
     d="M 133.315,11.195 C 170.48,20.68 188.38,23.65 173.16,32.39 162,38.803333 150.78333,45.103333 127.91666,58.041667 105.05,70.98 101.8,73.28 92.92,70.99 78.946667,67.376667 64.986667,63.756667 51.563333,60.318333 38.14,56.88 35.69,55.78 30.84,56.58 c -4.653333,2.666667 -6.126667,6.036667 -4.42,10.11 0.866667,2.066667 2.556667,3.83 33.373333,21.326667 C 90.61,105.51333 92.183333,108.50333 92.17,111.81 c -0.133333,26.81333 -0.08,53.62667 0.16,80.44 0.0067,1.08667 -0.03953,4.97043 -2.58,4.96 -2.326667,0.0333 -4.93,-0.76667 -7.81,-2.4 C 66.74,186.20333 51.593333,177.50333 36.451667,168.81167 21.31,160.12 10.12,155.96 10.27,145.76 c 0.44,-3.05333 -0.05338,0.0738 0.598333,-42.57333 C 10.796667,67.773333 11.47,61.823333 12.93,56.21 15.75,50.983333 19.58,46.963333 24.42,44.15 44.666667,32.376667 64.92,20.6 85.18,8.82 92.82,4.38 96.15,1.71 133.315,11.195 Z"
     id="path22"
     sodipodi:nodetypes="ccccccccccccccccccc" />
  <path
     fill="#e78200"
     d="m 177.29333,52.235 c 10.05876,7.226679 10.11667,7.231667 10.86834,24.5 0.75166,17.268333 0.82166,42.01833 0.69166,58.87833 -0.13,16.86 1.31586,17.64036 -4.65333,21.08667 -9.32,5.44667 -31.61667,18.31333 -66.89,38.6 -2.78667,1.6 -5.58917,2.89807 -7.56,1.41 -1.89011,-1.6262 -1.85056,-7.75042 -1.85056,-12.68042 -0.0267,-21.8 0.0906,-43.51625 0.11056,-65.32958 0.01,-8.56 -0.73,-14.32 6.005,-17.49 1.42667,-0.49333 52.2,-29.623333 52.2,-29.623333 7.00076,-4.697159 6.91204,-4.711264 1.95785,-7.9387 L 161.885,60 c -10.73402,-6.075505 -10.795,-6.11 -10.795,-6.11 -0.28093,-0.166442 -0.24516,-0.583794 0.06,-0.7 l 4.475,-2.315 c 9.28558,-5.383171 9.315,-5.395 9.315,-5.395 0.29333,-0.166667 0.58333,-0.16 0.87,0.02 z"
     id="path26"
     sodipodi:nodetypes="cccccccccccccccccc" />
</svg>
