<?xml version="1.0" encoding="UTF-8" standalone="no"?>
<!DOCTYPE svg PUBLIC "-//W3C//DTD SVG 1.1//EN" "http://www.w3.org/Graphics/SVG/1.1/DTD/svg11.dtd">
<svg xmlns="http://www.w3.org/2000/svg" version="1.1" viewBox="0.00 0.00 200.00 200.00">
    <g stroke-width="2.00" fill="none" stroke-linecap="butt">
        <path stroke="#eda532" vector-effect="non-scaling-stroke" d="
  M 103.79 3.50
  Q 108.49 6.35 114.00 6.04"
        />
        <path stroke="#eda532" vector-effect="non-scaling-stroke" d="
  M 127.25 9.54
  Q 132.34 12.52 138.25 12.46"
        />
        <path stroke="#eda532" vector-effect="non-scaling-stroke" d="
  M 142.92 13.92
  Q 151.64 17.03 160.71 18.80
  Q 162.85 19.22 165.00 19.46"
        />
        <path stroke="#eb9922" stroke-opacity="0.992" vector-effect="non-scaling-stroke" d="
  M 139.51 51.29
  Q 132.75 53.65 127.21 58.14"
        />
        <path stroke="#eb9922" stroke-opacity="0.992" vector-effect="non-scaling-stroke" d="
  M 118.00 63.54
  Q 114.35 63.82 112.29 66.75"
        />
        <path stroke="#eb9922" stroke-opacity="0.992" vector-effect="non-scaling-stroke" d="
  M 51.04 60.13
  Q 47.03 57.61 42.25 57.79"
        />
        <path stroke="#eb9922" stroke-opacity="0.992" vector-effect="non-scaling-stroke" d="
  M 30.84 56.58
  Q 23.86 60.58 26.42 66.69
  Q 27.72 69.79 31.49 71.98
  Q 34.80 73.90 38.49 75.10"
        />
        <path stroke="#eb9922" stroke-opacity="0.992" vector-effect="non-scaling-stroke" d="
  M 64.75 89.79
  Q 67.18 93.06 71.25 93.46"
        />
        <path stroke="#eda532" vector-effect="non-scaling-stroke" d="
  M 87.45 102.84
  Q 92.19 106.85 92.17 111.81
  Q 91.97 152.03 92.33 192.25
  Q 92.34 193.88 89.75 197.21"
        />
        <path stroke="#eb9922" stroke-opacity="0.992" vector-effect="non-scaling-stroke" d="
  M 36.50 168.71
  Q 33.61 165.09 29.00 164.29"
        />
        <path stroke="#f1b558" vector-effect="non-scaling-stroke" d="
  M 10.27 145.76
  Q 10.93 141.18 10.96 133.44
  Q 11.16 87.13 10.91 74.06
  Q 10.74 64.63 12.93 56.21"
        />
        <path stroke="#eb9922" stroke-opacity="0.992" vector-effect="non-scaling-stroke" d="
  M 169.92 48.12
  Q 172.45 50.98 176.25 51.46"
        />
        <path stroke="#eb9922" stroke-opacity="0.992" vector-effect="non-scaling-stroke" d="
  M 180.82 54.21
  Q 186.59 57.42 189.05 63.56"
        />
        <path stroke="#ebbe6f" stroke-opacity="0.996" vector-effect="non-scaling-stroke" d="
  M 189.54 67.00
  Q 189.00 68.57 189.00 69.25
  Q 188.87 106.38 189.21 143.50"
        />
        <path stroke="#eb9922" stroke-opacity="0.992" vector-effect="non-scaling-stroke" d="
  M 189.21 143.50
  Q 188.52 146.27 189.29 149.00"
        />
        <path stroke="#eda532" vector-effect="non-scaling-stroke" d="
  M 109.75 196.71
  C 107.05 192.10 108.02 189.05 108.02 184.12
  Q 107.98 151.42 108.01 118.70
  C 108.02 110.14 107.28 104.38 116.96 101.05
  Q 119.10 100.31 120.75 98.04"
        />
        <path stroke="#eb9922" stroke-opacity="0.992" vector-effect="non-scaling-stroke" d="
  M 160.00 75.96
  C 162.49 75.14 171.14 71.52 171.71 68.50"
        />
        <path stroke="#eda532" vector-effect="non-scaling-stroke" d="
  M 171.71 68.50
  Q 172.79 66.57 171.04 65.75"
        />
        <path stroke="#eb9922" stroke-opacity="0.992" vector-effect="non-scaling-stroke" d="
  M 166.77 62.71
  Q 162.65 58.57 157.00 57.29"
        />
        <path stroke="#eb9922" stroke-opacity="0.992" vector-effect="non-scaling-stroke" d="
  M 152.50 52.71
  Q 156.39 52.18 158.75 49.04"
        />
        <path stroke="#f2bd55" stroke-opacity="0.992" vector-effect="non-scaling-stroke" d="
  M 171.71 68.50
  L 170.79 69.00"
        />
    </g>
    <path fill="#e78200" d="
  M 103.79 3.50
  Q 108.49 6.35 114.00 6.04
  L 127.25 9.54
  Q 132.34 12.52 138.25 12.46
  L 142.92 13.92
  Q 151.64 17.03 160.71 18.80
  Q 162.85 19.22 165.00 19.46
  C 170.48 20.68 188.38 23.65 173.16 32.39
  Q 156.42 42.01 139.51 51.29
  Q 132.75 53.65 127.21 58.14
  L 118.00 63.54
  Q 114.35 63.82 112.29 66.75
  C 105.05 70.98 101.80 73.28 92.92 70.99
  Q 71.96 65.57 51.04 60.13
  Q 47.03 57.61 42.25 57.79
  C 38.14 56.88 35.69 55.78 30.84 56.58
  Q 23.86 60.58 26.42 66.69
  Q 27.72 69.79 31.49 71.98
  Q 34.80 73.90 38.49 75.10
  L 64.75 89.79
  Q 67.18 93.06 71.25 93.46
  L 87.45 102.84
  Q 92.19 106.85 92.17 111.81
  Q 91.97 152.03 92.33 192.25
  Q 92.34 193.88 89.75 197.21
  Q 86.26 197.26 81.94 194.81
  Q 59.14 181.90 36.50 168.71
  Q 33.61 165.09 29.00 164.29
  C 21.31 160.12 10.12 155.96 10.27 145.76
  Q 10.93 141.18 10.96 133.44
  Q 11.16 87.13 10.91 74.06
  Q 10.74 64.63 12.93 56.21
  Q 17.16 48.37 24.42 44.15
  Q 54.79 26.49 85.18 8.82
  C 92.82 4.38 96.15 1.71 103.79 3.50
  Z"
    />
    <path fill="#f3c965" fill-opacity="0.996" d="
  M 103.79 3.50
  L 114.00 6.04
  Q 108.49 6.35 103.79 3.50
  Z"
    />
    <path fill="#f3c965" fill-opacity="0.996" d="
  M 127.25 9.54
  L 138.25 12.46
  Q 132.34 12.52 127.25 9.54
  Z"
    />
    <path fill="#f3c965" fill-opacity="0.996" d="
  M 142.92 13.92
  Q 154.14 16.14 165.00 19.46
  Q 162.85 19.22 160.71 18.80
  Q 151.64 17.03 142.92 13.92
  Z"
    />
    <path fill="#e78200" d="
  M 169.92 48.12
  Q 172.45 50.98 176.25 51.46
  Q 178.84 52.37 180.82 54.21
  Q 186.59 57.42 189.05 63.56
  Q 189.74 65.18 189.54 67.00
  Q 189.00 68.57 189.00 69.25
  Q 188.87 106.38 189.21 143.50
  Q 188.52 146.27 189.29 149.00
  Q 188.44 154.21 184.20 156.70
  Q 170.22 164.87 117.31 195.30
  Q 113.13 197.70 109.75 196.71
  C 107.05 192.10 108.02 189.05 108.02 184.12
  Q 107.98 151.42 108.01 118.70
  C 108.02 110.14 107.28 104.38 116.96 101.05
  Q 119.10 100.31 120.75 98.04
  L 160.00 75.96
  C 162.49 75.14 171.14 71.52 171.71 68.50
  Q 172.79 66.57 171.04 65.75
  L 166.77 62.71
  Q 162.65 58.57 157.00 57.29
  L 151.09 53.89
  A 0.39 0.39 0.0 0 1 151.15 53.19
  L 152.50 52.71
  Q 156.39 52.18 158.75 49.04
  L 164.94 45.48
  Q 165.38 45.23 165.81 45.50
  L 169.92 48.12
  Z"
    />
    <path fill="#f0b145" fill-opacity="0.984" d="
  M 169.92 48.12
  Q 173.37 49.36 176.25 51.46
  Q 172.45 50.98 169.92 48.12
  Z"
    />
    <path fill="#f0b145" fill-opacity="0.984" d="
  M 158.75 49.04
  Q 156.39 52.18 152.50 52.71
  L 158.75 49.04
  Z"
    />
    <path fill="#f0b145" fill-opacity="0.984" d="
  M 139.51 51.29
  L 127.21 58.14
  Q 132.75 53.65 139.51 51.29
  Z"
    />
    <path fill="#f0b145" fill-opacity="0.984" d="
  M 180.82 54.21
  Q 187.89 56.47 189.05 63.56
  Q 186.59 57.42 180.82 54.21
  Z"
    />
    <path fill="#fce8b1" fill-opacity="0.996" d="
  M 12.93 56.21
  Q 10.74 64.63 10.91 74.06
  Q 11.16 87.13 10.96 133.44
  Q 10.93 141.18 10.27 145.76
  Q 9.54 99.97 10.25 66.00
  Q 10.35 61.25 12.93 56.21
  Z"
    />
    <path fill="#f0b145" fill-opacity="0.984" d="
  M 30.84 56.58
  Q 24.61 61.16 27.66 67.21
  C 29.45 70.75 35.08 73.02 38.49 75.10
  Q 34.80 73.90 31.49 71.98
  Q 27.72 69.79 26.42 66.69
  Q 23.86 60.58 30.84 56.58
  Z"
    />
    <path fill="#f0b145" fill-opacity="0.984" d="
  M 157.00 57.29
  Q 162.65 58.57 166.77 62.71
  L 157.00 57.29
  Z"
    />
    <path fill="#f0b145" fill-opacity="0.984" d="
  M 42.25 57.79
  Q 47.03 57.61 51.04 60.13
  L 42.25 57.79
  Z"
    />
    <path fill="#f0b145" fill-opacity="0.984" d="
  M 118.00 63.54
  L 112.29 66.75
  Q 114.35 63.82 118.00 63.54
  Z"
    />
    <path fill="#f3c965" fill-opacity="0.996" d="
  M 171.04 65.75
  Q 172.79 66.57 171.71 68.50
  L 170.79 69.00
  L 171.04 65.75
  Z"
    />
    <path fill="#effadf" fill-opacity="0.988" d="
  M 189.54 67.00
  Q 189.77 68.87 189.81 72.19
  Q 190.31 111.98 189.71 146.50
  L 189.21 143.50
  Q 188.87 106.38 189.00 69.25
  Q 189.00 68.57 189.54 67.00
  Z"
    />
    <path fill="#f0b145" fill-opacity="0.984" d="
  M 171.71 68.50
  C 171.14 71.52 162.49 75.14 160.00 75.96
  Q 165.73 72.98 170.79 69.00
  L 171.71 68.50
  Z"
    />
    <path fill="#f0b145" fill-opacity="0.984" d="
  M 64.75 89.79
  L 71.25 93.46
  Q 67.18 93.06 64.75 89.79
  Z"
    />
    <path fill="#f3c965" fill-opacity="0.996" d="
  M 120.75 98.04
  Q 119.10 100.31 116.96 101.05
  C 107.28 104.38 108.02 110.14 108.01 118.70
  Q 107.98 151.42 108.02 184.12
  C 108.02 189.05 107.05 192.10 109.75 196.71
  Q 107.05 195.18 107.04 191.68
  Q 106.94 153.63 107.04 115.57
  C 107.07 104.34 110.86 103.26 120.75 98.04
  Z"
    />
    <path fill="#f3c965" fill-opacity="0.996" d="
  M 87.45 102.84
  Q 92.92 105.72 92.96 111.81
  Q 93.09 132.18 92.97 191.24
  Q 92.96 195.45 89.75 197.21
  Q 92.34 193.88 92.33 192.25
  Q 91.97 152.03 92.17 111.81
  Q 92.19 106.85 87.45 102.84
  Z"
    />
    <path fill="#f0b145" fill-opacity="0.984" d="
  M 189.21 143.50
  L 189.71 146.50
  L 189.29 149.00
  Q 188.52 146.27 189.21 143.50
  Z"
    />
    <path fill="#f0b145" fill-opacity="0.984" d="
  M 29.00 164.29
  Q 33.61 165.09 36.50 168.71
  L 29.00 164.29
  Z"
    />
</svg>
